# xmcd
#
# Track frame offsets:
#	150
#	23479
#	39007
#	56516
#	74754
#	91667
#	109120
#	125670
#	143146
#	172267
#	189526
#	205838
#	228558
#	253346
#	273444
#	286139
#	300904
#
# Disc length: 4275 seconds
#
# Revision: 0
# Processed by: cddbd v1.5.2PL0 Copyright (c) Steve Scherf et al.
# Submitted via: EZCDAudioConverter 6.0.9.1
#
DISCID=f110b111
DTITLE=Pet Shop Boys - Release (Further Listening 2001 - 2004 Volume 1)
DYEAR=2017
DGENRE=
TTITLE0=Between Two Islands
TTITLE1=Searching for the Face of Jesus
TTITLE2=Time On My Hands
TTITLE3=Motoring (Demo)
TTITLE4=Love Life
TTITLE5=Transparent
TTITLE6=Sexy Northerner
TTITLE7=The Night Is a Time to Explore Who You Are (Demo)
TTITLE8=Closer To Heaven (Slow Version)
TTITLE9=Run, Girl, Run (Demo)
TTITLE10=I Didn't Get Where I Am Today
TTITLE11=Always
TTITLE12=Home and Dry (Ambient Mix)
TTITLE13=Bright Young Things (Demo)
TTITLE14=Kazak (Demo)
TTITLE15=A Powerful Friend (BBC Live Session)
TTITLE16=If Looks Could Kill (BBC Live Session)
EXTD=
EXTT0=
EXTT1=
EXTT2=
EXTT3=
EXTT4=
EXTT5=
EXTT6=
EXTT7=
EXTT8=
EXTT9=
EXTT10=
EXTT11=
EXTT12=
EXTT13=
EXTT14=
EXTT15=
EXTT16=
PLAYORDER=
